<svg width="45" height="45" viewBox="0 0 45 45" fill="none" xmlns="http://www.w3.org/2000/svg">
<path d="M-4.7982e-06 22.5C-4.67493e-06 19.6798 1.15697 18.515 3.95805 18.515C6.75913 18.515 7.9161 19.6798 7.9161 22.5C7.9161 26.2398 9.43843 27.7725 13.2138 27.7725C16.9283 27.7725 18.5115 26.2398 18.5115 22.5L18.5115 3.98501C18.5115 1.16485 19.6685 -1.10728e-06 22.4696 -9.84837e-07C25.2706 -8.62398e-07 26.4885 1.16485 26.4885 3.98501L26.4885 22.5C26.4885 26.2398 28.0108 27.7725 31.7862 27.7725C35.5616 27.7725 37.0839 26.2398 37.0839 22.5C37.0839 19.6798 38.2409 18.515 41.0419 18.515C43.843 18.515 45 19.6798 45 22.5C45 25.3202 43.843 26.485 41.0419 26.485C37.3275 26.485 35.7442 28.0177 35.7442 31.7575C35.7442 34.5777 34.5873 35.7425 31.7862 35.7425C28.0717 35.7425 26.4885 37.2752 26.4885 41.015C26.4885 43.8352 25.3315 45 22.5304 45C19.7294 45 18.5724 43.7738 18.5724 41.015C18.5724 37.2752 17.0501 35.7425 13.2747 35.7425C10.4736 35.7425 9.31664 34.5777 9.31664 31.7575C9.31664 28.0177 7.79431 26.485 4.01894 26.485C1.15697 26.485 -4.92148e-06 25.3202 -4.7982e-06 22.5Z" fill="#C4C4C4"/>
</svg>
