<?xml version="1.0" encoding="UTF-8"?>
<svg width="5px" height="21px" viewBox="0 0 5 21" version="1.1" xmlns="http://www.w3.org/2000/svg" xmlns:xlink="http://www.w3.org/1999/xlink">
    <title>menu</title>
    <g id="Page-1" stroke="none" stroke-width="1" fill="none" fill-rule="evenodd">
        <g id="menu" transform="translate(0.000529, 0.000000)" fill="#000000" fill-rule="nonzero">
            <path d="M4.12912067,19.2844 C5.28284067,18.1307 5.28284067,17.1794 4.12912067,16.0256 C3.35997067,15.2565 2.97539067,14.5683 2.97539067,13.8599 C2.97539067,13.2122 3.31948067,12.5442 3.98743067,11.8358 C4.02791067,11.7953 4.06839067,11.7548 4.12912067,11.7143 C4.71610067,11.1274 4.99947067,10.6011 4.99947067,10.0748 C4.99947067,9.54858 4.71610067,9.02232 4.12912067,8.43534 C4.08864067,8.39486 4.04815067,8.35438 3.98743067,8.3139 C3.31948067,7.60547 2.97539067,6.95776 2.97539067,6.28982 C2.97539067,5.58139 3.35997067,4.89321 4.12912067,4.12406 C5.28284067,2.97033 5.28284067,2.01902 4.12912067,0.865293 C2.97539067,-0.288431 2.02408067,-0.288431 0.870353674,0.865293 C-0.283370326,2.01902 -0.283370326,2.97033 0.870353674,4.12406 C2.34793067,5.60163 2.38841067,6.81608 1.03228067,8.27341 C0.971556674,8.33414 0.910835674,8.37462 0.870353674,8.43534 C0.283370674,9.02232 -1.07661276e-16,9.54858 -1.07661276e-16,10.0748 C-1.07661276e-16,10.6011 0.283370674,11.1274 0.870353674,11.7143 C0.931075674,11.7751 0.991797674,11.8155 1.03228067,11.8763 C2.38841067,13.3336 2.32769067,14.5481 0.870353674,16.0256 C-0.283370326,17.1794 -0.283371326,18.1307 0.870353674,19.2844 C2.02408067,20.4381 2.97539067,20.4381 4.12912067,19.2844 Z" id="Path"></path>
        </g>
    </g>
</svg>