<svg width="25" height="25" viewBox="0 0 25 25" fill="none" xmlns="http://www.w3.org/2000/svg">
<path opacity="0.8" fill-rule="evenodd" clip-rule="evenodd" d="M24 12.5C24 18.8513 18.8513 24 12.5 24C6.14873 24 1 18.8513 1 12.5C1 6.14873 6.14873 1 12.5 1C18.8513 1 24 6.14873 24 12.5ZM25 12.5C25 19.4036 19.4036 25 12.5 25C5.59644 25 0 19.4036 0 12.5C0 5.59644 5.59644 0 12.5 0C19.4036 0 25 5.59644 25 12.5ZM17.6536 9.72227C17.9362 9.41945 17.9198 8.94486 17.617 8.66224C17.3142 8.37961 16.8396 8.39598 16.557 8.69879L10.9649 14.6903L8.44303 11.9883C8.1604 11.6854 7.68581 11.6691 7.383 11.9517C7.08018 12.2343 7.06382 12.7089 7.34645 13.0117L10.4166 16.3012C10.5585 16.4532 10.757 16.5395 10.9649 16.5395C11.1728 16.5395 11.3714 16.4532 11.5132 16.3012L17.6536 9.72227Z" fill="#00974B"/>
</svg>
