<svg width="25" height="25" viewBox="0 0 25 25" fill="none" xmlns="http://www.w3.org/2000/svg">
<path fill-rule="evenodd" clip-rule="evenodd" d="M12.5 24C18.8513 24 24 18.8513 24 12.5C24 6.14873 18.8513 1 12.5 1C6.14873 1 1 6.14873 1 12.5C1 18.8513 6.14873 24 12.5 24ZM12.5 25C19.4036 25 25 19.4036 25 12.5C25 5.59644 19.4036 0 12.5 0C5.59644 0 0 5.59644 0 12.5C0 19.4036 5.59644 25 12.5 25Z" fill="#DF4848"/>
<path d="M16 8.74955L9.00003 16.2495" stroke="#DF4848" stroke-width="1.5" stroke-linecap="round" stroke-linejoin="round"/>
<path d="M16 16.25L9.00003 8.75" stroke="#DF4848" stroke-width="1.5" stroke-linecap="round" stroke-linejoin="round"/>
</svg>
