<svg viewBox="0 0 32 32" fill="none" xmlns="http://www.w3.org/2000/svg">
    <path fill-rule="evenodd" clip-rule="evenodd" d="M0 16C0 7.16344 7.16344 0 16 0C24.8366 0 32 7.16344 32 16C32 24.8366 24.8366 32 16 32C7.16344 32 0 24.8366 0 16ZM11.3138 13.25H7.68785L7.68785 24.1445L11.3138 24.1445L11.3138 13.25ZM11.5445 9.88961C11.521 8.82141 10.7571 8.00781 9.5167 8.00781C8.27629 8.00781 7.46534 8.82141 7.46534 9.88961C7.46534 10.9357 8.25232 11.7727 9.46963 11.7727H9.4928C10.7571 11.7727 11.5445 10.9357 11.5445 9.88961ZM24.3842 17.8998C24.3842 14.5535 22.5954 12.9961 20.2094 12.9961C18.2842 12.9961 17.4223 14.0535 16.9411 14.7953V13.2522L13.3147 13.2522C13.3625 14.2745 13.3147 24.1467 13.3147 24.1467H16.9411V18.0623C16.9411 17.7367 16.9646 17.4119 17.0605 17.1788C17.3225 16.5283 17.9192 15.8548 18.9209 15.8548C20.2336 15.8548 20.7583 16.8538 20.7583 18.3178V24.1464H24.3841L24.3842 17.8998Z" fill="white"></path>
</svg>