<svg width="201" height="39" viewBox="0 0 201 39" fill="none" xmlns="http://www.w3.org/2000/svg">
<path d="M52.362 26.551C53.1473 26.551 53.8913 26.396 54.594 26.086C55.2967 25.7553 55.9683 25.2697 56.609 24.629L58.469 26.644C57.6423 27.4707 56.6917 28.1217 55.617 28.597C54.5423 29.0517 53.416 29.279 52.238 29.279C51.1013 29.279 50.037 29.0723 49.045 28.659C48.053 28.225 47.1953 27.6463 46.472 26.923C45.7487 26.1997 45.17 25.342 44.736 24.35C44.3227 23.3373 44.116 22.2523 44.116 21.095C44.116 19.9583 44.3227 18.894 44.736 17.902C45.17 16.8893 45.7487 16.0213 46.472 15.298C47.1953 14.554 48.053 13.9753 49.045 13.562C50.037 13.128 51.1013 12.911 52.238 12.911C53.416 12.911 54.563 13.1487 55.679 13.624C56.795 14.0787 57.7663 14.7193 58.593 15.546L56.64 17.654C56.0407 17.0133 55.369 16.5277 54.625 16.197C53.881 15.8457 53.106 15.67 52.3 15.67C50.874 15.67 49.665 16.197 48.673 17.251C47.681 18.305 47.185 19.5863 47.185 21.095C47.185 22.645 47.681 23.947 48.673 25.001C49.6857 26.0343 50.9153 26.551 52.362 26.551ZM59.9865 21.095C59.9865 19.9583 60.1932 18.894 60.6065 17.902C61.0405 16.8893 61.6295 16.0213 62.3735 15.298C63.1175 14.554 63.9855 13.9753 64.9775 13.562C65.9902 13.128 67.0649 12.911 68.2015 12.911C69.3382 12.911 70.4025 13.128 71.3945 13.562C72.4072 13.9753 73.2752 14.554 73.9985 15.298C74.7425 16.0213 75.3212 16.8893 75.7345 17.902C76.1685 18.894 76.3855 19.9583 76.3855 21.095C76.3855 22.2523 76.1685 23.3373 75.7345 24.35C75.3212 25.342 74.7425 26.21 73.9985 26.954C73.2752 27.6773 72.4072 28.256 71.3945 28.69C70.4025 29.1033 69.3382 29.31 68.2015 29.31C67.0649 29.31 65.9902 29.1033 64.9775 28.69C63.9855 28.256 63.1175 27.6773 62.3735 26.954C61.6295 26.21 61.0405 25.342 60.6065 24.35C60.1932 23.3373 59.9865 22.2523 59.9865 21.095ZM68.2015 26.582C69.6275 26.582 70.8365 26.055 71.8285 25.001C72.8412 23.9263 73.3475 22.6243 73.3475 21.095C73.3475 19.5657 72.8412 18.274 71.8285 17.22C70.8365 16.166 69.6275 15.639 68.2015 15.639C66.7755 15.639 65.5562 16.166 64.5435 17.22C63.5309 18.274 63.0245 19.5657 63.0245 21.095C63.0245 22.6243 63.5205 23.9263 64.5125 25.001C65.5252 26.055 66.7549 26.582 68.2015 26.582ZM82.7277 6.618V29H79.6277V7.3L82.7277 6.618ZM88.2387 10.679C87.722 10.679 87.2777 10.493 86.9057 10.121C86.5337 9.72833 86.3477 9.27367 86.3477 8.757C86.3477 8.24033 86.5337 7.796 86.9057 7.424C87.2777 7.03133 87.722 6.835 88.2387 6.835C88.7554 6.835 89.1997 7.03133 89.5717 7.424C89.9644 7.796 90.1607 8.24033 90.1607 8.757C90.1607 9.27367 89.9644 9.72833 89.5717 10.121C89.1997 10.493 88.7554 10.679 88.2387 10.679ZM89.7887 13.221V29H86.6887V13.221H89.7887ZM93.7497 29V13.221H96.8497V14.802C97.4697 14.182 98.1723 13.717 98.9577 13.407C99.7637 13.0763 100.642 12.911 101.593 12.911C103.391 12.911 104.868 13.4897 106.026 14.647C107.183 15.7837 107.762 17.2613 107.762 19.08V29H104.662V19.607C104.662 18.367 104.3 17.3957 103.577 16.693C102.874 15.9697 101.934 15.608 100.756 15.608C99.929 15.608 99.1747 15.7837 98.4927 16.135C97.8313 16.4863 97.2837 16.9927 96.8497 17.654V29H93.7497ZM125.32 27.202C124.41 27.9047 123.46 28.4317 122.468 28.783C121.476 29.1137 120.391 29.279 119.213 29.279C118.055 29.279 116.97 29.0723 115.958 28.659C114.945 28.225 114.067 27.6463 113.323 26.923C112.579 26.1997 111.99 25.342 111.556 24.35C111.142 23.3373 110.936 22.2523 110.936 21.095C110.936 19.9583 111.142 18.894 111.556 17.902C111.969 16.91 112.527 16.0523 113.23 15.329C113.932 14.6057 114.769 14.0373 115.741 13.624C116.712 13.19 117.745 12.973 118.841 12.973C119.915 12.973 120.918 13.19 121.848 13.624C122.798 14.0373 123.604 14.616 124.266 15.36C124.948 16.0833 125.485 16.9513 125.878 17.964C126.27 18.9767 126.467 20.0617 126.467 21.219V22.118H114.005C114.211 23.42 114.811 24.505 115.803 25.373C116.795 26.2203 117.973 26.644 119.337 26.644C120.101 26.644 120.835 26.52 121.538 26.272C122.24 26.024 122.84 25.683 123.336 25.249L125.32 27.202ZM118.779 15.577C117.601 15.577 116.567 15.9697 115.679 16.755C114.811 17.5403 114.263 18.553 114.036 19.793H123.398C123.17 18.5943 122.623 17.592 121.755 16.786C120.907 15.98 119.915 15.577 118.779 15.577ZM134.538 29.279C132.823 29.279 131.428 28.8347 130.353 27.946C129.279 27.0573 128.741 25.9 128.741 24.474C128.741 22.986 129.31 21.8183 130.446 20.971C131.583 20.103 133.143 19.669 135.127 19.669C135.892 19.669 136.636 19.7517 137.359 19.917C138.083 20.0617 138.775 20.2683 139.436 20.537V18.863C139.436 17.747 139.106 16.91 138.444 16.352C137.783 15.794 136.832 15.515 135.592 15.515C134.869 15.515 134.115 15.6287 133.329 15.856C132.544 16.0627 131.666 16.3933 130.694 16.848L129.547 14.523C130.725 13.965 131.841 13.562 132.895 13.314C133.949 13.0453 134.993 12.911 136.026 12.911C138.072 12.911 139.653 13.407 140.769 14.399C141.906 15.3703 142.474 16.755 142.474 18.553V29H139.436V27.636C138.734 28.194 137.979 28.6073 137.173 28.876C136.367 29.1447 135.489 29.279 134.538 29.279ZM131.717 24.412C131.717 25.1767 132.038 25.7967 132.678 26.272C133.34 26.7473 134.197 26.985 135.251 26.985C136.078 26.985 136.843 26.861 137.545 26.613C138.248 26.365 138.878 25.993 139.436 25.497V22.769C138.837 22.4383 138.207 22.2007 137.545 22.056C136.884 21.8907 136.161 21.808 135.375 21.808C134.259 21.808 133.371 22.0457 132.709 22.521C132.048 22.9963 131.717 23.6267 131.717 24.412ZM146.356 29V13.221H149.456V15.236C149.932 14.4713 150.541 13.8927 151.285 13.5C152.029 13.0867 152.866 12.88 153.796 12.88C154.127 12.88 154.416 12.9007 154.664 12.942C154.912 12.9833 155.15 13.0453 155.377 13.128V15.918C155.088 15.8147 154.788 15.732 154.478 15.67C154.168 15.608 153.858 15.577 153.548 15.577C152.639 15.577 151.823 15.825 151.099 16.321C150.397 16.7963 149.849 17.5093 149.456 18.46V29H146.356Z" fill="black"/>
<path d="M39 0H0V39H39V0Z" fill="#F0F0F6"/>
<path d="M39 0H0V39H39V0Z" fill="#F0F0F6"/>
<path d="M24.9601 9.35986H22.1521C20.0412 9.35986 18.3301 11.071 18.3301 13.1819V15.9899C18.3301 18.1007 20.0412 19.8119 22.1521 19.8119H24.9601C27.0709 19.8119 28.7821 18.1007 28.7821 15.9899V13.1819C28.7821 11.071 27.0709 9.35986 24.9601 9.35986Z" fill="#050505"/>
<path d="M29.7179 5.3042H27.8459C25.4766 5.3042 23.5559 7.2249 23.5559 9.5942V11.4662C23.5559 13.8355 25.4766 15.7562 27.8459 15.7562H29.7179C32.0872 15.7562 34.0079 13.8355 34.0079 11.4662V9.5942C34.0079 7.2249 32.0872 5.3042 29.7179 5.3042Z" fill="#F0F0F6"/>
<path d="M20.4361 6.47412H18.5641C16.841 6.47412 15.4441 7.87099 15.4441 9.59412V11.4661C15.4441 13.1892 16.841 14.5861 18.5641 14.5861H20.4361C22.1592 14.5861 23.5561 13.1892 23.5561 11.4661V9.59412C23.5561 7.87099 22.1592 6.47412 20.4361 6.47412Z" fill="#050505"/>
<path d="M29.5621 15.7559H27.6901C25.9669 15.7559 24.5701 17.1527 24.5701 18.8759V20.7479C24.5701 22.471 25.9669 23.8679 27.6901 23.8679H29.5621C31.2852 23.8679 32.6821 22.471 32.6821 20.7479V18.8759C32.6821 17.1527 31.2852 15.7559 29.5621 15.7559Z" fill="#050505"/>
<path d="M20.2801 25.0381H18.4081C16.685 25.0381 15.2881 26.435 15.2881 28.1581V30.0301C15.2881 31.7532 16.685 33.1501 18.4081 33.1501H20.2801C22.0032 33.1501 23.4001 31.7532 23.4001 30.0301V28.1581C23.4001 26.435 22.0032 25.0381 20.2801 25.0381Z" fill="#050505"/>
<path d="M10.9981 15.7559H9.1261C7.40298 15.7559 6.0061 17.1527 6.0061 18.8759V20.7479C6.0061 22.471 7.40298 23.8679 9.1261 23.8679H10.9981C12.7212 23.8679 14.1181 22.471 14.1181 20.7479V18.8759C14.1181 17.1527 12.7212 15.7559 10.9981 15.7559Z" fill="#050505"/>
<path d="M24.0239 18.6421H14.5859C12.4751 18.6421 10.7639 20.3533 10.7639 22.4641V25.2721C10.7639 27.3829 12.4751 29.0941 14.5859 29.0941H24.0239C26.1347 29.0941 27.8459 27.3829 27.8459 25.2721V22.4641C27.8459 20.3533 26.1347 18.6421 24.0239 18.6421Z" fill="#050505"/>
<path d="M20.2799 14.5859H18.4079C16.0386 14.5859 14.1179 16.5066 14.1179 18.8759V20.7479C14.1179 23.1172 16.0386 25.0379 18.4079 25.0379H20.2799C22.6492 25.0379 24.5699 23.1172 24.5699 20.7479V18.8759C24.5699 16.5066 22.6492 14.5859 20.2799 14.5859Z" fill="#F0F0F6"/>
<path d="M10.9979 23.8682H9.12594C6.75664 23.8682 4.83594 25.7889 4.83594 28.1582V30.0302C4.83594 32.3995 6.75664 34.3202 9.12594 34.3202H10.9979C13.3672 34.3202 15.2879 32.3995 15.2879 30.0302V28.1582C15.2879 25.7889 13.3672 23.8682 10.9979 23.8682Z" fill="#F0F0F6"/>
<path d="M29.5619 23.8682H27.6899C25.3206 23.8682 23.3999 25.7889 23.3999 28.1582V30.0302C23.3999 32.3995 25.3206 34.3202 27.6899 34.3202H29.5619C31.9312 34.3202 33.8519 32.3995 33.8519 30.0302V28.1582C33.8519 25.7889 31.9312 23.8682 29.5619 23.8682Z" fill="#F0F0F6"/>
</svg>
