<svg width="200" height="39" viewBox="0 0 200 39" fill="none" xmlns="http://www.w3.org/2000/svg">
<path d="M51.06 25.63C51.82 25.63 52.54 25.48 53.22 25.18C53.9 24.86 54.55 24.39 55.17 23.77L56.97 25.72C56.17 26.52 55.25 27.15 54.21 27.61C53.17 28.05 52.08 28.27 50.94 28.27C49.84 28.27 48.81 28.07 47.85 27.67C46.89 27.25 46.06 26.69 45.36 25.99C44.66 25.29 44.1 24.46 43.68 23.5C43.28 22.52 43.08 21.47 43.08 20.35C43.08 19.25 43.28 18.22 43.68 17.26C44.1 16.28 44.66 15.44 45.36 14.74C46.06 14.02 46.89 13.46 47.85 13.06C48.81 12.64 49.84 12.43 50.94 12.43C52.08 12.43 53.19 12.66 54.27 13.12C55.35 13.56 56.29 14.18 57.09 14.98L55.2 17.02C54.62 16.4 53.97 15.93 53.25 15.61C52.53 15.27 51.78 15.1 51 15.1C49.62 15.1 48.45 15.61 47.49 16.63C46.53 17.65 46.05 18.89 46.05 20.35C46.05 21.85 46.53 23.11 47.49 24.13C48.47 25.13 49.66 25.63 51.06 25.63ZM58.1386 20.35C58.1386 19.25 58.3386 18.22 58.7386 17.26C59.1586 16.28 59.7286 15.44 60.4486 14.74C61.1686 14.02 62.0086 13.46 62.9686 13.06C63.9486 12.64 64.9886 12.43 66.0886 12.43C67.1886 12.43 68.2186 12.64 69.1786 13.06C70.1586 13.46 70.9986 14.02 71.6986 14.74C72.4186 15.44 72.9786 16.28 73.3786 17.26C73.7986 18.22 74.0086 19.25 74.0086 20.35C74.0086 21.47 73.7986 22.52 73.3786 23.5C72.9786 24.46 72.4186 25.3 71.6986 26.02C70.9986 26.72 70.1586 27.28 69.1786 27.7C68.2186 28.1 67.1886 28.3 66.0886 28.3C64.9886 28.3 63.9486 28.1 62.9686 27.7C62.0086 27.28 61.1686 26.72 60.4486 26.02C59.7286 25.3 59.1586 24.46 58.7386 23.5C58.3386 22.52 58.1386 21.47 58.1386 20.35ZM66.0886 25.66C67.4686 25.66 68.6386 25.15 69.5986 24.13C70.5786 23.09 71.0686 21.83 71.0686 20.35C71.0686 18.87 70.5786 17.62 69.5986 16.6C68.6386 15.58 67.4686 15.07 66.0886 15.07C64.7086 15.07 63.5286 15.58 62.5486 16.6C61.5686 17.62 61.0786 18.87 61.0786 20.35C61.0786 21.83 61.5586 23.09 62.5186 24.13C63.4986 25.15 64.6886 25.66 66.0886 25.66ZM79.8462 6.34V28H76.8462V7L79.8462 6.34ZM84.8794 10.27C84.3794 10.27 83.9494 10.09 83.5894 9.73C83.2294 9.35 83.0494 8.91 83.0494 8.41C83.0494 7.91 83.2294 7.48 83.5894 7.12C83.9494 6.74 84.3794 6.55 84.8794 6.55C85.3794 6.55 85.8094 6.74 86.1694 7.12C86.5494 7.48 86.7394 7.91 86.7394 8.41C86.7394 8.91 86.5494 9.35 86.1694 9.73C85.8094 10.09 85.3794 10.27 84.8794 10.27ZM86.3794 12.73V28H83.3794V12.73H86.3794ZM89.9126 28V12.73H92.9126V14.26C93.5126 13.66 94.1926 13.21 94.9526 12.91C95.7326 12.59 96.5826 12.43 97.5026 12.43C99.2426 12.43 100.673 12.99 101.793 14.11C102.913 15.21 103.473 16.64 103.473 18.4V28H100.473V18.91C100.473 17.71 100.123 16.77 99.4226 16.09C98.7426 15.39 97.8326 15.04 96.6926 15.04C95.8926 15.04 95.1626 15.21 94.5026 15.55C93.8626 15.89 93.3326 16.38 92.9126 17.02V28H89.9126ZM120.164 26.26C119.284 26.94 118.364 27.45 117.404 27.79C116.444 28.11 115.394 28.27 114.254 28.27C113.134 28.27 112.084 28.07 111.104 27.67C110.124 27.25 109.274 26.69 108.554 25.99C107.834 25.29 107.264 24.46 106.844 23.5C106.444 22.52 106.244 21.47 106.244 20.35C106.244 19.25 106.444 18.22 106.844 17.26C107.244 16.3 107.784 15.47 108.464 14.77C109.144 14.07 109.954 13.52 110.894 13.12C111.834 12.7 112.834 12.49 113.894 12.49C114.934 12.49 115.904 12.7 116.804 13.12C117.724 13.52 118.504 14.08 119.144 14.8C119.804 15.5 120.324 16.34 120.704 17.32C121.084 18.3 121.274 19.35 121.274 20.47V21.34H109.214C109.414 22.6 109.994 23.65 110.954 24.49C111.914 25.31 113.054 25.72 114.374 25.72C115.114 25.72 115.824 25.6 116.504 25.36C117.184 25.12 117.764 24.79 118.244 24.37L120.164 26.26ZM113.834 15.01C112.694 15.01 111.694 15.39 110.834 16.15C109.994 16.91 109.464 17.89 109.244 19.09H118.304C118.084 17.93 117.554 16.96 116.714 16.18C115.894 15.4 114.934 15.01 113.834 15.01ZM128.786 28.27C127.126 28.27 125.776 27.84 124.736 26.98C123.696 26.12 123.176 25 123.176 23.62C123.176 22.18 123.726 21.05 124.826 20.23C125.926 19.39 127.436 18.97 129.356 18.97C130.096 18.97 130.816 19.05 131.516 19.21C132.216 19.35 132.886 19.55 133.526 19.81V18.19C133.526 17.11 133.206 16.3 132.566 15.76C131.926 15.22 131.006 14.95 129.806 14.95C129.106 14.95 128.376 15.06 127.616 15.28C126.856 15.48 126.006 15.8 125.066 16.24L123.956 13.99C125.096 13.45 126.176 13.06 127.196 12.82C128.216 12.56 129.226 12.43 130.226 12.43C132.206 12.43 133.736 12.91 134.816 13.87C135.916 14.81 136.466 16.15 136.466 17.89V28H133.526V26.68C132.846 27.22 132.116 27.62 131.336 27.88C130.556 28.14 129.706 28.27 128.786 28.27ZM126.056 23.56C126.056 24.3 126.366 24.9 126.986 25.36C127.626 25.82 128.456 26.05 129.476 26.05C130.276 26.05 131.016 25.93 131.696 25.69C132.376 25.45 132.986 25.09 133.526 24.61V21.97C132.946 21.65 132.336 21.42 131.696 21.28C131.056 21.12 130.356 21.04 129.596 21.04C128.516 21.04 127.656 21.27 127.016 21.73C126.376 22.19 126.056 22.8 126.056 23.56ZM139.922 28V12.73H142.922V14.68C143.382 13.94 143.972 13.38 144.692 13C145.412 12.6 146.222 12.4 147.122 12.4C147.442 12.4 147.722 12.42 147.962 12.46C148.202 12.5 148.432 12.56 148.652 12.64V15.34C148.372 15.24 148.082 15.16 147.782 15.1C147.482 15.04 147.182 15.01 146.882 15.01C146.002 15.01 145.212 15.25 144.512 15.73C143.832 16.19 143.302 16.88 142.922 17.8V28H139.922Z" fill="black"/>
<path d="M39 0H0V39H39V0Z" fill="#F0F0F6"/>
<path d="M39 0H0V39H39V0Z" fill="#F0F0F6"/>
<path d="M24.9601 9.35986H22.1521C20.0412 9.35986 18.3301 11.071 18.3301 13.1819V15.9899C18.3301 18.1007 20.0412 19.8119 22.1521 19.8119H24.9601C27.0709 19.8119 28.7821 18.1007 28.7821 15.9899V13.1819C28.7821 11.071 27.0709 9.35986 24.9601 9.35986Z" fill="#050505"/>
<path d="M29.7179 5.3042H27.8459C25.4766 5.3042 23.5559 7.2249 23.5559 9.5942V11.4662C23.5559 13.8355 25.4766 15.7562 27.8459 15.7562H29.7179C32.0872 15.7562 34.0079 13.8355 34.0079 11.4662V9.5942C34.0079 7.2249 32.0872 5.3042 29.7179 5.3042Z" fill="#F0F0F6"/>
<path d="M20.4361 6.47412H18.5641C16.841 6.47412 15.4441 7.87099 15.4441 9.59412V11.4661C15.4441 13.1892 16.841 14.5861 18.5641 14.5861H20.4361C22.1592 14.5861 23.5561 13.1892 23.5561 11.4661V9.59412C23.5561 7.87099 22.1592 6.47412 20.4361 6.47412Z" fill="#050505"/>
<path d="M29.5621 15.7559H27.6901C25.9669 15.7559 24.5701 17.1527 24.5701 18.8759V20.7479C24.5701 22.471 25.9669 23.8679 27.6901 23.8679H29.5621C31.2852 23.8679 32.6821 22.471 32.6821 20.7479V18.8759C32.6821 17.1527 31.2852 15.7559 29.5621 15.7559Z" fill="#050505"/>
<path d="M20.2801 25.0381H18.4081C16.685 25.0381 15.2881 26.435 15.2881 28.1581V30.0301C15.2881 31.7532 16.685 33.1501 18.4081 33.1501H20.2801C22.0032 33.1501 23.4001 31.7532 23.4001 30.0301V28.1581C23.4001 26.435 22.0032 25.0381 20.2801 25.0381Z" fill="#050505"/>
<path d="M10.9981 15.7559H9.1261C7.40298 15.7559 6.0061 17.1527 6.0061 18.8759V20.7479C6.0061 22.471 7.40298 23.8679 9.1261 23.8679H10.9981C12.7212 23.8679 14.1181 22.471 14.1181 20.7479V18.8759C14.1181 17.1527 12.7212 15.7559 10.9981 15.7559Z" fill="#050505"/>
<path d="M24.0239 18.6421H14.5859C12.4751 18.6421 10.7639 20.3533 10.7639 22.4641V25.2721C10.7639 27.3829 12.4751 29.0941 14.5859 29.0941H24.0239C26.1347 29.0941 27.8459 27.3829 27.8459 25.2721V22.4641C27.8459 20.3533 26.1347 18.6421 24.0239 18.6421Z" fill="#050505"/>
<path d="M20.2799 14.5859H18.4079C16.0386 14.5859 14.1179 16.5066 14.1179 18.8759V20.7479C14.1179 23.1172 16.0386 25.0379 18.4079 25.0379H20.2799C22.6492 25.0379 24.5699 23.1172 24.5699 20.7479V18.8759C24.5699 16.5066 22.6492 14.5859 20.2799 14.5859Z" fill="#F0F0F6"/>
<path d="M10.9979 23.8682H9.12594C6.75664 23.8682 4.83594 25.7889 4.83594 28.1582V30.0302C4.83594 32.3995 6.75664 34.3202 9.12594 34.3202H10.9979C13.3672 34.3202 15.2879 32.3995 15.2879 30.0302V28.1582C15.2879 25.7889 13.3672 23.8682 10.9979 23.8682Z" fill="#F0F0F6"/>
<path d="M29.5619 23.8682H27.6899C25.3206 23.8682 23.3999 25.7889 23.3999 28.1582V30.0302C23.3999 32.3995 25.3206 34.3202 27.6899 34.3202H29.5619C31.9312 34.3202 33.8519 32.3995 33.8519 30.0302V28.1582C33.8519 25.7889 31.9312 23.8682 29.5619 23.8682Z" fill="#F0F0F6"/>
</svg>
