<svg width="201" height="39" viewBox="0 0 201 39" fill="none" xmlns="http://www.w3.org/2000/svg">
<path d="M51.494 28.372C48.9727 28.372 47.1127 27.6797 45.914 26.295C44.7153 24.9103 44.116 22.761 44.116 19.847C44.116 16.933 44.7153 14.7837 45.914 13.399C47.1333 12.0143 48.9933 11.322 51.494 11.322C53.7053 11.322 55.3587 11.8697 56.454 12.965C57.57 14.0397 58.128 15.6413 58.128 17.77H54.904C54.904 16.4473 54.6353 15.476 54.098 14.856C53.5813 14.236 52.703 13.926 51.463 13.926C50.0577 13.926 49.0243 14.391 48.363 15.321C47.7223 16.251 47.402 17.739 47.402 19.785V20.002C47.402 22.0273 47.7223 23.4947 48.363 24.404C49.0243 25.3133 50.0783 25.768 51.525 25.768C52.7443 25.768 53.633 25.4477 54.191 24.807C54.7697 24.1457 55.059 23.1847 55.059 21.924H58.128C58.128 23.8667 57.57 25.427 56.454 26.605C55.338 27.783 53.6847 28.372 51.494 28.372ZM68.1906 28.372C65.6073 28.372 63.6646 27.6797 62.3626 26.295C61.0813 24.8897 60.4406 22.7403 60.4406 19.847C60.4406 16.9537 61.0813 14.8147 62.3626 13.43C63.6646 12.0247 65.6073 11.322 68.1906 11.322C70.774 11.322 72.7166 12.0247 74.0186 13.43C75.3206 14.8147 75.9716 16.9537 75.9716 19.847C75.9716 22.7403 75.3206 24.8897 74.0186 26.295C72.7166 27.6797 70.774 28.372 68.1906 28.372ZM68.1906 25.737C69.7613 25.737 70.898 25.2823 71.6006 24.373C72.324 23.443 72.6856 21.986 72.6856 20.002V19.692C72.6856 17.708 72.324 16.2613 71.6006 15.352C70.898 14.422 69.7613 13.957 68.1906 13.957C66.6406 13.957 65.504 14.422 64.7806 15.352C64.078 16.2613 63.7266 17.708 63.7266 19.692V20.002C63.7266 21.986 64.078 23.443 64.7806 24.373C65.504 25.2823 66.6406 25.737 68.1906 25.737ZM79.5132 5.587H82.7062V28H79.5132V5.587ZM87.2401 5.587H90.4021V8.842H87.2401V5.587ZM87.2401 11.694H90.4331V28H87.2401V11.694ZM94.9671 11.694H97.5401L97.8501 13.864H98.0671C98.6458 13.0373 99.3898 12.407 100.299 11.973C101.229 11.539 102.273 11.322 103.43 11.322C106.881 11.322 108.607 13.1923 108.607 16.933V28H105.414V17.336C105.414 16.1167 105.135 15.2693 104.577 14.794C104.04 14.298 103.244 14.05 102.19 14.05C101.467 14.05 100.795 14.236 100.175 14.608C99.5551 14.9593 99.0591 15.4657 98.6871 16.127C98.3358 16.7883 98.1601 17.553 98.1601 18.421V28H94.9671V11.694ZM119.899 28.372C117.274 28.372 115.321 27.6797 114.04 26.295C112.758 24.9103 112.118 22.761 112.118 19.847C112.118 16.933 112.758 14.7837 114.04 13.399C115.321 12.0143 117.274 11.322 119.899 11.322C122.275 11.322 124.053 11.973 125.231 13.275C126.409 14.5563 126.998 16.6023 126.998 19.413V20.653H115.404C115.486 22.4097 115.879 23.7117 116.582 24.559C117.305 25.3857 118.421 25.799 119.93 25.799C121.108 25.799 122.058 25.52 122.782 24.962C123.505 24.404 123.867 23.5463 123.867 22.389H126.998C126.998 24.3317 126.336 25.8197 125.014 26.853C123.712 27.8657 122.007 28.372 119.899 28.372ZM123.681 18.235C123.681 15.3417 122.42 13.895 119.899 13.895C118.493 13.895 117.439 14.2463 116.737 14.949C116.034 15.631 115.61 16.7263 115.466 18.235H123.681ZM134.799 28.372C133.456 28.372 132.237 28.0413 131.141 27.38C130.067 26.7187 129.529 25.52 129.529 23.784C129.529 21.6967 130.439 20.25 132.257 19.444C134.076 18.638 136.68 18.235 140.069 18.235V16.623C140.069 15.7343 139.832 15.0627 139.356 14.608C138.902 14.1327 138.044 13.895 136.783 13.895C135.564 13.895 134.696 14.112 134.179 14.546C133.683 14.98 133.435 15.507 133.435 16.127V16.53H130.335C130.315 16.406 130.304 16.1787 130.304 15.848C130.304 14.422 130.904 13.3163 132.102 12.531C133.301 11.725 134.903 11.322 136.907 11.322C139.015 11.322 140.596 11.756 141.65 12.624C142.725 13.492 143.262 14.7217 143.262 16.313V24.652C143.262 25.024 143.366 25.303 143.572 25.489C143.779 25.6543 144.037 25.737 144.347 25.737H145.463V27.876C144.926 28.1447 144.192 28.279 143.262 28.279C142.518 28.279 141.888 28.0827 141.371 27.69C140.875 27.2767 140.545 26.7187 140.379 26.016H140.162C139.584 26.76 138.84 27.3387 137.93 27.752C137.042 28.1653 135.998 28.372 134.799 28.372ZM135.729 25.768C136.949 25.768 137.972 25.4063 138.798 24.683C139.646 23.939 140.069 22.9263 140.069 21.645V20.653C137.713 20.653 135.915 20.8597 134.675 21.273C133.435 21.6657 132.815 22.42 132.815 23.536C132.815 24.3007 133.053 24.869 133.528 25.241C134.024 25.5923 134.758 25.768 135.729 25.768ZM148.119 11.694H150.692L151.002 14.205H151.188C151.932 12.283 153.182 11.322 154.939 11.322C155.517 11.322 156.024 11.4047 156.458 11.57V14.608H155.311C154.091 14.608 153.12 14.9593 152.397 15.662C151.673 16.3647 151.312 17.4393 151.312 18.886V28H148.119V11.694Z" fill="black"/>
<path d="M39 0H0V39H39V0Z" fill="#F0F0F6"/>
<path d="M39 0H0V39H39V0Z" fill="#F0F0F6"/>
<path d="M24.9601 9.35986H22.1521C20.0412 9.35986 18.3301 11.071 18.3301 13.1819V15.9899C18.3301 18.1007 20.0412 19.8119 22.1521 19.8119H24.9601C27.0709 19.8119 28.7821 18.1007 28.7821 15.9899V13.1819C28.7821 11.071 27.0709 9.35986 24.9601 9.35986Z" fill="#050505"/>
<path d="M29.7179 5.3042H27.8459C25.4766 5.3042 23.5559 7.2249 23.5559 9.5942V11.4662C23.5559 13.8355 25.4766 15.7562 27.8459 15.7562H29.7179C32.0872 15.7562 34.0079 13.8355 34.0079 11.4662V9.5942C34.0079 7.2249 32.0872 5.3042 29.7179 5.3042Z" fill="#F0F0F6"/>
<path d="M20.4361 6.47412H18.5641C16.841 6.47412 15.4441 7.87099 15.4441 9.59412V11.4661C15.4441 13.1892 16.841 14.5861 18.5641 14.5861H20.4361C22.1592 14.5861 23.5561 13.1892 23.5561 11.4661V9.59412C23.5561 7.87099 22.1592 6.47412 20.4361 6.47412Z" fill="#050505"/>
<path d="M29.5621 15.7559H27.6901C25.9669 15.7559 24.5701 17.1527 24.5701 18.8759V20.7479C24.5701 22.471 25.9669 23.8679 27.6901 23.8679H29.5621C31.2852 23.8679 32.6821 22.471 32.6821 20.7479V18.8759C32.6821 17.1527 31.2852 15.7559 29.5621 15.7559Z" fill="#050505"/>
<path d="M20.2801 25.0381H18.4081C16.685 25.0381 15.2881 26.435 15.2881 28.1581V30.0301C15.2881 31.7532 16.685 33.1501 18.4081 33.1501H20.2801C22.0032 33.1501 23.4001 31.7532 23.4001 30.0301V28.1581C23.4001 26.435 22.0032 25.0381 20.2801 25.0381Z" fill="#050505"/>
<path d="M10.9981 15.7559H9.1261C7.40298 15.7559 6.0061 17.1527 6.0061 18.8759V20.7479C6.0061 22.471 7.40298 23.8679 9.1261 23.8679H10.9981C12.7212 23.8679 14.1181 22.471 14.1181 20.7479V18.8759C14.1181 17.1527 12.7212 15.7559 10.9981 15.7559Z" fill="#050505"/>
<path d="M24.0239 18.6421H14.5859C12.4751 18.6421 10.7639 20.3533 10.7639 22.4641V25.2721C10.7639 27.3829 12.4751 29.0941 14.5859 29.0941H24.0239C26.1347 29.0941 27.8459 27.3829 27.8459 25.2721V22.4641C27.8459 20.3533 26.1347 18.6421 24.0239 18.6421Z" fill="#050505"/>
<path d="M20.2799 14.5859H18.4079C16.0386 14.5859 14.1179 16.5066 14.1179 18.8759V20.7479C14.1179 23.1172 16.0386 25.0379 18.4079 25.0379H20.2799C22.6492 25.0379 24.5699 23.1172 24.5699 20.7479V18.8759C24.5699 16.5066 22.6492 14.5859 20.2799 14.5859Z" fill="#F0F0F6"/>
<path d="M10.9979 23.8682H9.12594C6.75664 23.8682 4.83594 25.7889 4.83594 28.1582V30.0302C4.83594 32.3995 6.75664 34.3202 9.12594 34.3202H10.9979C13.3672 34.3202 15.2879 32.3995 15.2879 30.0302V28.1582C15.2879 25.7889 13.3672 23.8682 10.9979 23.8682Z" fill="#F0F0F6"/>
<path d="M29.5619 23.8682H27.6899C25.3206 23.8682 23.3999 25.7889 23.3999 28.1582V30.0302C23.3999 32.3995 25.3206 34.3202 27.6899 34.3202H29.5619C31.9312 34.3202 33.8519 32.3995 33.8519 30.0302V28.1582C33.8519 25.7889 31.9312 23.8682 29.5619 23.8682Z" fill="#F0F0F6"/>
</svg>
