<svg width="200" height="39" viewBox="0 0 200 39" fill="none" xmlns="http://www.w3.org/2000/svg">
<path d="M51.06 25.63C51.82 25.63 52.54 25.48 53.22 25.18C53.9 24.86 54.55 24.39 55.17 23.77L56.97 25.72C56.17 26.52 55.25 27.15 54.21 27.61C53.17 28.05 52.08 28.27 50.94 28.27C49.84 28.27 48.81 28.07 47.85 27.67C46.89 27.25 46.06 26.69 45.36 25.99C44.66 25.29 44.1 24.46 43.68 23.5C43.28 22.52 43.08 21.47 43.08 20.35C43.08 19.25 43.28 18.22 43.68 17.26C44.1 16.28 44.66 15.44 45.36 14.74C46.06 14.02 46.89 13.46 47.85 13.06C48.81 12.64 49.84 12.43 50.94 12.43C52.08 12.43 53.19 12.66 54.27 13.12C55.35 13.56 56.29 14.18 57.09 14.98L55.2 17.02C54.62 16.4 53.97 15.93 53.25 15.61C52.53 15.27 51.78 15.1 51 15.1C49.62 15.1 48.45 15.61 47.49 16.63C46.53 17.65 46.05 18.89 46.05 20.35C46.05 21.85 46.53 23.11 47.49 24.13C48.47 25.13 49.66 25.63 51.06 25.63ZM57.8386 20.35C57.8386 19.25 58.0386 18.22 58.4386 17.26C58.8586 16.28 59.4286 15.44 60.1486 14.74C60.8686 14.02 61.7086 13.46 62.6686 13.06C63.6486 12.64 64.6886 12.43 65.7886 12.43C66.8886 12.43 67.9186 12.64 68.8786 13.06C69.8586 13.46 70.6986 14.02 71.3986 14.74C72.1186 15.44 72.6786 16.28 73.0786 17.26C73.4986 18.22 73.7086 19.25 73.7086 20.35C73.7086 21.47 73.4986 22.52 73.0786 23.5C72.6786 24.46 72.1186 25.3 71.3986 26.02C70.6986 26.72 69.8586 27.28 68.8786 27.7C67.9186 28.1 66.8886 28.3 65.7886 28.3C64.6886 28.3 63.6486 28.1 62.6686 27.7C61.7086 27.28 60.8686 26.72 60.1486 26.02C59.4286 25.3 58.8586 24.46 58.4386 23.5C58.0386 22.52 57.8386 21.47 57.8386 20.35ZM65.7886 25.66C67.1686 25.66 68.3386 25.15 69.2986 24.13C70.2786 23.09 70.7686 21.83 70.7686 20.35C70.7686 18.87 70.2786 17.62 69.2986 16.6C68.3386 15.58 67.1686 15.07 65.7886 15.07C64.4086 15.07 63.2286 15.58 62.2486 16.6C61.2686 17.62 60.7786 18.87 60.7786 20.35C60.7786 21.83 61.2586 23.09 62.2186 24.13C63.1986 25.15 64.3886 25.66 65.7886 25.66ZM79.2462 6.34V28H76.2462V7L79.2462 6.34ZM83.9794 10.27C83.4794 10.27 83.0494 10.09 82.6894 9.73C82.3294 9.35 82.1494 8.91 82.1494 8.41C82.1494 7.91 82.3294 7.48 82.6894 7.12C83.0494 6.74 83.4794 6.55 83.9794 6.55C84.4794 6.55 84.9094 6.74 85.2694 7.12C85.6494 7.48 85.8394 7.91 85.8394 8.41C85.8394 8.91 85.6494 9.35 85.2694 9.73C84.9094 10.09 84.4794 10.27 83.9794 10.27ZM85.4794 12.73V28H82.4794V12.73H85.4794ZM88.7126 28V12.73H91.7126V14.26C92.3126 13.66 92.9926 13.21 93.7526 12.91C94.5326 12.59 95.3826 12.43 96.3026 12.43C98.0426 12.43 99.4726 12.99 100.593 14.11C101.713 15.21 102.273 16.64 102.273 18.4V28H99.2726V18.91C99.2726 17.71 98.9226 16.77 98.2226 16.09C97.5426 15.39 96.6326 15.04 95.4926 15.04C94.6926 15.04 93.9626 15.21 93.3026 15.55C92.6626 15.89 92.1326 16.38 91.7126 17.02V28H88.7126ZM118.664 26.26C117.784 26.94 116.864 27.45 115.904 27.79C114.944 28.11 113.894 28.27 112.754 28.27C111.634 28.27 110.584 28.07 109.604 27.67C108.624 27.25 107.774 26.69 107.054 25.99C106.334 25.29 105.764 24.46 105.344 23.5C104.944 22.52 104.744 21.47 104.744 20.35C104.744 19.25 104.944 18.22 105.344 17.26C105.744 16.3 106.284 15.47 106.964 14.77C107.644 14.07 108.454 13.52 109.394 13.12C110.334 12.7 111.334 12.49 112.394 12.49C113.434 12.49 114.404 12.7 115.304 13.12C116.224 13.52 117.004 14.08 117.644 14.8C118.304 15.5 118.824 16.34 119.204 17.32C119.584 18.3 119.774 19.35 119.774 20.47V21.34H107.714C107.914 22.6 108.494 23.65 109.454 24.49C110.414 25.31 111.554 25.72 112.874 25.72C113.614 25.72 114.324 25.6 115.004 25.36C115.684 25.12 116.264 24.79 116.744 24.37L118.664 26.26ZM112.334 15.01C111.194 15.01 110.194 15.39 109.334 16.15C108.494 16.91 107.964 17.89 107.744 19.09H116.804C116.584 17.93 116.054 16.96 115.214 16.18C114.394 15.4 113.434 15.01 112.334 15.01ZM126.986 28.27C125.326 28.27 123.976 27.84 122.936 26.98C121.896 26.12 121.376 25 121.376 23.62C121.376 22.18 121.926 21.05 123.026 20.23C124.126 19.39 125.636 18.97 127.556 18.97C128.296 18.97 129.016 19.05 129.716 19.21C130.416 19.35 131.086 19.55 131.726 19.81V18.19C131.726 17.11 131.406 16.3 130.766 15.76C130.126 15.22 129.206 14.95 128.006 14.95C127.306 14.95 126.576 15.06 125.816 15.28C125.056 15.48 124.206 15.8 123.266 16.24L122.156 13.99C123.296 13.45 124.376 13.06 125.396 12.82C126.416 12.56 127.426 12.43 128.426 12.43C130.406 12.43 131.936 12.91 133.016 13.87C134.116 14.81 134.666 16.15 134.666 17.89V28H131.726V26.68C131.046 27.22 130.316 27.62 129.536 27.88C128.756 28.14 127.906 28.27 126.986 28.27ZM124.256 23.56C124.256 24.3 124.566 24.9 125.186 25.36C125.826 25.82 126.656 26.05 127.676 26.05C128.476 26.05 129.216 25.93 129.896 25.69C130.576 25.45 131.186 25.09 131.726 24.61V21.97C131.146 21.65 130.536 21.42 129.896 21.28C129.256 21.12 128.556 21.04 127.796 21.04C126.716 21.04 125.856 21.27 125.216 21.73C124.576 22.19 124.256 22.8 124.256 23.56ZM137.822 28V12.73H140.822V14.68C141.282 13.94 141.872 13.38 142.592 13C143.312 12.6 144.122 12.4 145.022 12.4C145.342 12.4 145.622 12.42 145.862 12.46C146.102 12.5 146.332 12.56 146.552 12.64V15.34C146.272 15.24 145.982 15.16 145.682 15.1C145.382 15.04 145.082 15.01 144.782 15.01C143.902 15.01 143.112 15.25 142.412 15.73C141.732 16.19 141.202 16.88 140.822 17.8V28H137.822Z" fill="black"/>
<path d="M39 0H0V39H39V0Z" fill="#F0F0F6"/>
<path d="M39 0H0V39H39V0Z" fill="#F0F0F6"/>
<path d="M24.9601 9.35986H22.1521C20.0412 9.35986 18.3301 11.071 18.3301 13.1819V15.9899C18.3301 18.1007 20.0412 19.8119 22.1521 19.8119H24.9601C27.0709 19.8119 28.7821 18.1007 28.7821 15.9899V13.1819C28.7821 11.071 27.0709 9.35986 24.9601 9.35986Z" fill="#050505"/>
<path d="M29.7179 5.3042H27.8459C25.4766 5.3042 23.5559 7.2249 23.5559 9.5942V11.4662C23.5559 13.8355 25.4766 15.7562 27.8459 15.7562H29.7179C32.0872 15.7562 34.0079 13.8355 34.0079 11.4662V9.5942C34.0079 7.2249 32.0872 5.3042 29.7179 5.3042Z" fill="#F0F0F6"/>
<path d="M20.4361 6.47412H18.5641C16.841 6.47412 15.4441 7.87099 15.4441 9.59412V11.4661C15.4441 13.1892 16.841 14.5861 18.5641 14.5861H20.4361C22.1592 14.5861 23.5561 13.1892 23.5561 11.4661V9.59412C23.5561 7.87099 22.1592 6.47412 20.4361 6.47412Z" fill="#050505"/>
<path d="M29.5621 15.7559H27.6901C25.9669 15.7559 24.5701 17.1527 24.5701 18.8759V20.7479C24.5701 22.471 25.9669 23.8679 27.6901 23.8679H29.5621C31.2852 23.8679 32.6821 22.471 32.6821 20.7479V18.8759C32.6821 17.1527 31.2852 15.7559 29.5621 15.7559Z" fill="#050505"/>
<path d="M20.2801 25.0381H18.4081C16.685 25.0381 15.2881 26.435 15.2881 28.1581V30.0301C15.2881 31.7532 16.685 33.1501 18.4081 33.1501H20.2801C22.0032 33.1501 23.4001 31.7532 23.4001 30.0301V28.1581C23.4001 26.435 22.0032 25.0381 20.2801 25.0381Z" fill="#050505"/>
<path d="M10.9981 15.7559H9.1261C7.40298 15.7559 6.0061 17.1527 6.0061 18.8759V20.7479C6.0061 22.471 7.40298 23.8679 9.1261 23.8679H10.9981C12.7212 23.8679 14.1181 22.471 14.1181 20.7479V18.8759C14.1181 17.1527 12.7212 15.7559 10.9981 15.7559Z" fill="#050505"/>
<path d="M24.0239 18.6421H14.5859C12.4751 18.6421 10.7639 20.3533 10.7639 22.4641V25.2721C10.7639 27.3829 12.4751 29.0941 14.5859 29.0941H24.0239C26.1347 29.0941 27.8459 27.3829 27.8459 25.2721V22.4641C27.8459 20.3533 26.1347 18.6421 24.0239 18.6421Z" fill="#050505"/>
<path d="M20.2799 14.5859H18.4079C16.0386 14.5859 14.1179 16.5066 14.1179 18.8759V20.7479C14.1179 23.1172 16.0386 25.0379 18.4079 25.0379H20.2799C22.6492 25.0379 24.5699 23.1172 24.5699 20.7479V18.8759C24.5699 16.5066 22.6492 14.5859 20.2799 14.5859Z" fill="#F0F0F6"/>
<path d="M10.9979 23.8682H9.12594C6.75664 23.8682 4.83594 25.7889 4.83594 28.1582V30.0302C4.83594 32.3995 6.75664 34.3202 9.12594 34.3202H10.9979C13.3672 34.3202 15.2879 32.3995 15.2879 30.0302V28.1582C15.2879 25.7889 13.3672 23.8682 10.9979 23.8682Z" fill="#F0F0F6"/>
<path d="M29.5619 23.8682H27.6899C25.3206 23.8682 23.3999 25.7889 23.3999 28.1582V30.0302C23.3999 32.3995 25.3206 34.3202 27.6899 34.3202H29.5619C31.9312 34.3202 33.8519 32.3995 33.8519 30.0302V28.1582C33.8519 25.7889 31.9312 23.8682 29.5619 23.8682Z" fill="#F0F0F6"/>
</svg>
