<?xml version="1.0" standalone="no"?>
<!DOCTYPE svg PUBLIC "-//W3C//DTD SVG 20010904//EN"
 "http://www.w3.org/TR/2001/REC-SVG-20010904/DTD/svg10.dtd">
<svg version="1.0" xmlns="http://www.w3.org/2000/svg"
 width="226.000000pt" height="226.000000pt" viewBox="0 0 226.000000 226.000000"
 preserveAspectRatio="xMidYMid meet">
<metadata>
Created by potrace 1.14, written by Peter Selinger 2001-2017
</metadata>
<g transform="translate(0.000000,226.000000) scale(0.100000,-0.100000)"
fill="#000000" stroke="none">
<path d="M0 1130 l0 -1130 1130 0 1130 0 0 1130 0 1130 -1130 0 -1130 0 0
-1130z m1245 731 c83 -38 102 -79 114 -236 12 -156 42 -210 144 -255 33 -15
77 -23 140 -27 112 -6 149 -16 193 -55 41 -36 54 -79 54 -178 0 -97 -12 -139
-52 -177 -41 -38 -85 -53 -159 -53 -105 0 -196 -27 -247 -74 -46 -41 -64 -93
-73 -213 -9 -127 -23 -168 -68 -206 -45 -37 -96 -50 -187 -46 -157 8 -202 58
-214 245 -7 96 -12 121 -37 166 -47 89 -102 113 -279 128 -120 9 -163 29 -194
91 -34 66 -24 252 17 316 23 36 101 55 201 51 158 -6 207 -55 218 -223 11
-170 47 -243 141 -283 106 -45 280 -37 366 18 33 21 52 43 73 87 27 54 29 67
29 173 0 100 -3 122 -24 169 -28 60 -80 105 -144 122 -22 6 -84 14 -137 18
-120 9 -165 30 -200 92 -22 38 -25 56 -25 139 0 134 25 180 120 217 49 19 183
16 230 -6z"/>
</g>
</svg>
